<svg xmlns="http://www.w3.org/2000/svg" width="988.4483" height="338.6837" viewBox="0 0 988.4483 338.6837"><defs><style>.a{fill:#fff;}</style></defs><title>Asset 2</title><path class="a" d="M140.679,203.275h21.086V181.861a21.0986,21.0986,0,0,1,20.754-20.755h21.415V140.02a20.67,20.67,0,0,1,20.756-20.756H331.434A169.2606,169.2606,0,0,0,169.672,0C76.105,0,0,75.775,0,169.342A169.5421,169.5421,0,0,0,119.923,331.434V224.031a20.67,20.67,0,0,1,20.756-20.756"/><path class="a" d="M220.4075,140.02v21.0861h118.276a161.7585,161.7585,0,0,0-2.966-25.369H224.6905a4.3608,4.3608,0,0,0-4.283,4.2829"/><path class="a" d="M178.2376,181.8614v21.414h25.697v-25.697h-21.416a4.36,4.36,0,0,0-4.281,4.283"/><path class="a" d="M178.2376,219.7477v118.936a137.3592,137.3592,0,0,0,25.697-3.295V219.7477Z"/><path class="a" d="M140.679,219.7477a4.154,4.154,0,0,0-4.283,4.283v111.358a130.576,130.576,0,0,0,25.369,3.295V219.7477Z"/><path class="a" d="M220.4075,203.275h115.31a170.7094,170.7094,0,0,0,2.966-25.697H220.4075Z"/><path class="a" d="M220.4075,331.4342a170.9139,170.9139,0,0,0,111.027-111.687H220.4075Z"/><path class="a" d="M451.0442,116.43v48.33H436.3691V81.6005h58.6991a24.4664,24.4664,0,0,1,24.459,24.458,24.4664,24.4664,0,0,1-24.459,24.459h-9.195l34.242,34.242h-20.742Zm0-20.154v19.567h44.024a9.7835,9.7835,0,1,0,0-19.567Z"/><polygon class="a" points="607.579 81.6 607.579 96.275 539.095 96.275 539.095 115.842 607.579 115.842 607.579 130.517 539.095 130.517 539.095 150.084 607.579 150.084 607.579 164.759 524.42 164.759 524.42 81.6 607.579 81.6"/><path class="a" d="M632.3315,150.0843l-8.463,14.675h-16.974l41.139-71.224,8.463-14.674,8.463,14.674,41.1389,71.224H689.1245l-8.4631-14.675Zm39.867-14.6751-15.702-27.198-15.702,27.198Z"/><polygon class="a" points="705.413 81.6 720.088 81.6 720.088 150.084 788.572 150.084 788.572 164.759 705.413 164.759 705.413 81.6"/><rect class="a" x="793.4641" y="81.6008" width="14.675" height="83.159"/><polygon class="a" points="861.949 96.275 861.949 164.759 847.273 164.759 847.273 96.275 813.031 96.275 813.031 81.6 896.19 81.6 896.19 96.275 861.949 96.275"/><polygon class="a" points="949.999 125.919 949.999 164.759 935.324 164.759 935.324 125.919 896.875 81.6 916.295 81.6 942.662 111.978 969.028 81.6 988.448 81.6 949.999 125.919"/><path class="a" d="M519.5276,216.8971v4.892h-14.674v-4.892a9.7734,9.7734,0,0,0-9.7851-9.784H460.8276a9.77,9.77,0,0,0-9.783,9.784v34.241a9.77,9.77,0,0,0,9.783,9.784h34.2409a9.7734,9.7734,0,0,0,9.7851-9.784v-4.891h14.674v4.891a24.4663,24.4663,0,0,1-24.4591,24.459H460.8276a24.468,24.468,0,0,1-24.459-24.459v-34.241a24.468,24.468,0,0,1,24.459-24.459h34.2409a24.4663,24.4663,0,0,1,24.4591,24.459"/><path class="a" d="M544.2807,260.9227l-8.463,14.675H518.8438l41.1389-71.224,8.463-14.675,8.4631,14.675,41.1389,71.224h-16.974l-8.463-14.675Zm39.8671-14.676L568.4457,219.05l-15.702,27.197Z"/><path class="a" d="M632.0374,227.2669v48.33h-14.675v-83.159h58.7a24.4585,24.4585,0,0,1,0,48.917h-9.1959l34.2419,34.242H680.3674Zm0-20.154V226.68h44.0249a9.7835,9.7835,0,1,0,0-19.567Z"/><path class="a" d="M788.5726,251.1385a24.4663,24.4663,0,0,1-24.459,24.459h-58.7v-83.159h58.7a24.4663,24.4663,0,0,1,24.459,24.459Zm-24.459,9.784a9.7713,9.7713,0,0,0,9.7839-9.784v-34.241a9.773,9.773,0,0,0-9.7839-9.785h-44.025v53.81Z"/><path class="a" d="M817.9232,275.5973a24.4663,24.4663,0,0,1-24.4591-24.459h14.675a9.7713,9.7713,0,0,0,9.7841,9.784h34.2409a9.7835,9.7835,0,1,0,0-19.567H817.9232a24.4585,24.4585,0,0,1,0-48.917h34.2409a24.4663,24.4663,0,0,1,24.459,24.459h-14.675a9.7715,9.7715,0,0,0-9.784-9.784H817.9232a9.7835,9.7835,0,1,0,0,19.567h34.2409a24.4585,24.4585,0,0,1,0,48.917Z"/></svg>